<svg id="Layer_1" data-name="Layer 1" xmlns="http://www.w3.org/2000/svg" viewBox="0 0 30.66815 34.29269">
  <defs>
    <style>
      .cls-1 {
        fill: #eba255;
      }

      .cls-2 {
        fill: #f9f9f9;
      }
    </style>
  </defs>
  <title>bus-orange</title>
  <rect class="cls-1" x="1.75545" y="9.41215" width="27.09939" height="20.72173" rx="1.17055" ry="1.17055"/>
  <path class="cls-1" d="M84.46722,96.82919h-19.989a3.55468,3.55468,0,0,1-3.52683-3.99864,22.63851,22.63851,0,0,1,.83475-6.63092A3.56683,3.56683,0,0,1,65.325,83.07829a110.87333,110.87333,0,0,1,18.33038,0,3.55706,3.55706,0,0,1,3.53091,3.12659,29.16729,29.16729,0,0,1,.80945,6.63947A3.55466,3.55466,0,0,1,84.46722,96.82919Z" transform="translate(-59.16756 -82.69883)"/>
  <rect class="cls-1" x="5.1977" y="29.13499" width="3.88135" height="5.1577" rx="0.86943" ry="0.86943"/>
  <rect class="cls-1" x="21.96325" y="29.13499" width="3.88135" height="5.1577" rx="0.86943" ry="0.86943"/>
  <rect class="cls-1" y="7.06518" width="3.62661" height="7.06518" rx="1.11911" ry="1.11911"/>
  <rect class="cls-1" x="27.04154" y="7.06518" width="3.62661" height="7.06518" rx="1.11911" ry="1.11911"/>
  <rect class="cls-2" x="5.1977" y="7.06518" width="20.6469" height="11.87095"/>
  <rect class="cls-2" x="5.1977" y="24.64889" width="6.0074" height="2.89353"/>
  <rect class="cls-2" x="19.8372" y="24.64889" width="6.0074" height="2.89353"/>
  <rect class="cls-2" x="6.71344" y="2.84473" width="17.63746" height="2.41424"/>
</svg>
