<svg id="Layer_1" data-name="Layer 1" xmlns="http://www.w3.org/2000/svg" width="70.14894" height="72.38298" viewBox="0 0 70.14894 72.38298">
  <title>bus-NE</title>
  <rect x="24.92501" y="29.65477" width="27.09939" height="20.72173" rx="1.17055" ry="1.17055" fill="#3c48a0"/>
  <path d="M48.46922,34.373h-19.989a3.55468,3.55468,0,0,1-3.52683-3.99864,22.63851,22.63851,0,0,1,.83475-6.63092A3.56683,3.56683,0,0,1,29.327,20.62208a110.87333,110.87333,0,0,1,18.33038,0,3.55706,3.55706,0,0,1,3.53091,3.12659,29.16729,29.16729,0,0,1,.80945,6.63947A3.55466,3.55466,0,0,1,48.46922,34.373Z" fill="#3c48a0"/>
  <rect x="28.36726" y="49.37761" width="3.88135" height="5.1577" rx="0.86943" ry="0.86943" fill="#3c48a0"/>
  <rect x="45.13281" y="49.37761" width="3.88135" height="5.1577" rx="0.86943" ry="0.86943" fill="#3c48a0"/>
  <rect x="23.16956" y="27.3078" width="3.62661" height="7.06518" rx="1.11911" ry="1.11911" fill="#3c48a0"/>
  <rect x="50.21109" y="27.3078" width="3.62661" height="7.06518" rx="1.11911" ry="1.11911" fill="#3c48a0"/>
  <rect x="28.36726" y="27.3078" width="20.6469" height="11.87095" fill="#f9f9f9"/>
  <rect x="28.36726" y="44.89151" width="6.0074" height="2.89353" fill="#f9f9f9"/>
  <rect x="43.00675" y="44.89151" width="6.0074" height="2.89353" fill="#f9f9f9"/>
  <rect x="29.883" y="23.08734" width="17.63746" height="2.41424" fill="#f9f9f9"/>
</svg>
